<svg width="393" height="852" viewBox="0 0 393 852" fill="none" xmlns="http://www.w3.org/2000/svg">
<g clip-path="url(#clip0_411_1038)">
<rect width="393" height="852" fill="#FFF5E1"/>
<path d="M94.1402 132.855C116.225 119.025 121.81 114.657 125.832 89.8804C128.037 76.2992 119.548 49.9628 114.884 39.8687C107.756 24.4392 87.2506 14.2529 80.8204 10.9628C61.989 1.32748 33.9716 7.29218 20.6518 15.551C2.22182 26.9784 -9.31766 52.7157 -6.90633 71.9863C-3.96679 95.4781 12.3844 109.827 23.8669 114.657C44.8111 123.466 66.582 114.588 74.8495 103.645C89.5472 84.191 83.9476 66.9392 80.8204 57.7628C74.9414 40.511 54.1809 37.8467 42.239 39.8687C20.5599 43.5392 15.7256 61.8922 16.5181 71.9863C17.9879 90.7063 38.5646 100.892 51.8844 94.9275C62.5402 90.1557 65.6124 83.9157 66.582 75.1981C67.3169 68.591 58.9053 61.3157 56.8844 59.9392C48.8006 54.4334 45.3844 60.2275 45.3844 63.4392C44.6495 67.8439 49.5879 67.4687 51.8844 69.9392C56.6611 75.0781 55.5588 80.0371 51.8844 81.6216C34.8602 88.9628 27.8284 73.8216 29.3786 66.9392C32.6855 52.2569 44.9948 49.9628 51.8844 49.9628C60.703 49.9628 70.7158 61.9495 72.0937 66.9392C77.9727 88.2287 61.989 101.67 51.8844 103.645C18.0797 110.252 5.03553 82.0804 5.03553 66.9392C5.03553 31.151 37.1867 17.7012 51.8844 17.8451C89.3634 18.2122 109.381 47.2098 112.972 66.9392C118.483 97.2216 102.408 119.704 94.1402 132.855Z" fill="#4A223B" fill-opacity="0.06"/>
<path d="M-12.7742 204.784C-11.8392 230.825 -10.8489 237.846 8.59716 253.717C19.2565 262.417 46.3088 268.234 57.3825 269.242C74.3091 270.783 93.3832 258.118 99.4477 254.195C117.208 242.704 126.051 215.458 125.558 199.793C124.877 178.119 108.358 155.256 90.4631 147.709C68.6489 138.509 48.0466 145.495 38.1227 153.024C20.0214 166.758 16.8247 190.051 22.1679 202.683C31.6668 225.138 49.407 228.915 58.9177 230.795C76.7977 234.329 89.4852 217.682 93.7051 206.329C101.366 185.719 87.8889 172.356 78.7509 167.996C61.804 159.908 42.6944 172.635 41.2001 187.153C40.0047 198.767 43.8726 204.548 50.9375 209.746C56.2919 213.686 66.7983 210.039 69.0008 208.977C77.8109 204.73 74.5012 198.874 71.7197 197.268C68.2726 194.429 66.1284 198.894 62.8406 199.647C56.0018 201.215 52.2584 197.78 52.7234 193.806C54.8778 175.392 71.5063 176.873 76.6916 181.657C87.7534 191.862 83.5855 203.669 80.1407 209.635C75.7314 217.273 60.3442 219.95 55.334 218.649C33.9573 213.096 30.3084 192.533 33.6504 182.794C44.8309 150.215 75.7504 153.004 88.8631 160.575C119.857 178.469 115.429 213.038 107.955 225.694C88.898 257.968 53.7767 260.805 34.895 254.05C5.91393 243.682 -5.51856 218.519 -12.7742 204.784Z" fill="#4A223B" fill-opacity="0.06"/>
<path d="M122.912 317.051C109.081 294.966 104.714 289.381 79.9371 285.359C66.3559 283.154 40.0194 291.643 29.9253 296.307C14.4959 303.435 4.30951 323.94 1.01941 330.37C-8.61588 349.202 -2.65118 377.219 5.60765 390.539C17.035 408.969 42.7724 420.509 62.0429 418.097C85.5347 415.158 99.8838 398.807 104.714 387.324C113.523 366.38 104.645 344.609 93.7018 336.341C74.2476 321.644 56.9959 327.243 47.8194 330.37C30.5677 336.25 27.9034 357.01 29.9253 368.952C33.5959 390.631 51.9488 395.465 62.0429 394.673C80.7629 393.203 90.9488 372.626 84.9841 359.307C80.2123 348.651 73.9724 345.579 65.2547 344.609C58.6476 343.874 51.3724 352.286 49.9959 354.307C44.49 362.39 50.2841 365.807 53.4959 365.807C57.9006 366.541 57.5253 361.603 59.9959 359.307C65.1347 354.53 70.0937 355.632 71.6782 359.307C79.0194 376.331 63.8782 383.363 56.9959 381.812C42.3135 378.505 40.0194 366.196 40.0194 359.307C40.0194 350.488 52.0062 340.475 56.9959 339.097C78.2853 333.218 91.7268 349.202 93.7018 359.307C100.309 393.111 72.1371 406.155 56.9959 406.155C21.2076 406.155 7.75782 374.004 7.90177 359.307C8.26882 321.827 37.2665 301.81 56.9959 298.219C87.2782 292.708 109.761 308.783 122.912 317.051Z" fill="#4A223B" fill-opacity="0.06"/>
<path d="M21.8276 425C-0.257517 438.831 -5.84228 443.199 -9.86428 467.975C-12.0689 481.556 -3.58029 507.893 1.0834 517.987C8.2121 533.416 28.7171 543.603 35.1474 546.893C53.9788 556.528 81.9962 550.563 95.316 542.304C113.746 530.877 125.285 505.14 122.874 485.869C119.935 462.377 103.583 448.028 92.1008 443.199C71.1567 434.389 49.3857 443.267 41.1183 454.21C26.4206 473.664 32.0202 490.916 35.1473 500.093C41.0264 517.344 61.7869 520.009 73.7287 517.987C95.4078 514.316 100.242 495.963 99.4497 485.869C97.9799 467.149 77.4032 456.963 64.0834 462.928C53.4276 467.7 50.3554 473.94 49.3857 482.657C48.6508 489.264 57.0625 496.54 59.0834 497.916C67.1671 503.422 70.5834 497.628 70.5834 494.416C71.3183 490.012 66.3799 490.387 64.0834 487.916C59.3067 482.777 60.409 477.818 64.0834 476.234C81.1076 468.893 88.1394 484.034 86.5892 490.916C83.2822 505.599 70.9729 507.893 64.0834 507.893C55.2648 507.893 45.252 495.906 43.8741 490.916C37.995 469.627 53.9787 456.185 64.0834 454.21C97.888 447.603 110.932 475.775 110.932 490.916C110.932 526.704 78.7811 540.154 64.0834 540.01C26.6043 539.643 6.58709 510.646 2.99618 490.916C-2.51545 460.634 13.5601 438.152 21.8276 425Z" fill="#4A223B" fill-opacity="0.06"/>
<path d="M54.7837 712.542C80.8253 711.607 87.8457 710.616 103.717 691.17C112.417 680.511 118.234 653.459 119.242 642.385C120.783 625.459 108.118 606.384 104.195 600.32C92.7039 582.56 65.4577 573.717 49.7931 574.209C28.1185 574.891 5.25639 591.41 -2.29062 609.304C-11.4908 631.119 -4.50483 651.721 3.0245 661.645C16.758 679.746 40.0513 682.943 52.6826 677.6C75.1382 668.101 78.9147 650.361 80.7947 640.85C84.3292 622.97 67.6822 610.282 56.3293 606.062C35.7194 598.402 22.3562 611.879 17.9955 621.017C9.90837 637.964 22.6354 657.073 37.153 658.567C48.7671 659.763 54.5477 655.895 59.7463 648.83C63.6862 643.476 60.0392 632.969 58.9773 630.767C54.7295 621.957 48.8739 625.266 47.268 628.048C44.4292 631.495 48.8936 633.639 49.6471 636.927C51.2145 643.766 47.7803 647.509 43.806 647.044C25.392 644.89 26.8729 628.261 31.6565 623.076C41.8616 612.014 53.6689 616.182 59.6354 619.627C67.2725 624.036 69.9505 639.423 68.6489 644.434C63.0956 665.81 42.5326 669.459 32.7942 666.117C0.214987 654.937 3.00427 624.017 10.5749 610.905C28.469 579.911 63.0376 584.339 75.6942 591.812C107.968 610.87 110.805 645.991 104.05 664.873C93.6823 693.854 68.5192 705.286 54.7837 712.542Z" fill="#4A223B" fill-opacity="0.06"/>
<path d="M21.8276 728.856C-0.257497 742.686 -5.84226 747.054 -9.86427 771.831C-12.0689 785.412 -3.58028 811.748 1.08341 821.842C8.21211 837.272 28.7171 847.458 35.1474 850.748C53.9788 860.383 81.9962 854.419 95.316 846.16C113.746 834.733 125.285 808.995 122.874 789.725C119.935 766.233 103.583 751.884 92.1009 747.054C71.1567 738.245 49.3857 747.123 41.1183 758.066C26.4206 777.52 32.0202 794.772 35.1474 803.948C41.0264 821.2 61.7869 823.864 73.7288 821.842C95.4078 818.172 100.242 799.819 99.4497 789.725C97.9799 771.005 77.4032 760.819 64.0834 766.783C53.4276 771.555 50.3554 777.795 49.3857 786.513C48.6508 793.12 57.0625 800.395 59.0834 801.772C67.1671 807.278 70.5834 801.483 70.5834 798.272C71.3183 793.867 66.3799 794.242 64.0834 791.772C59.3067 786.633 60.409 781.674 64.0834 780.089C81.1076 772.748 88.1394 787.889 86.5892 794.772C83.2822 809.454 70.9729 811.748 64.0834 811.748C55.2648 811.748 45.252 799.761 43.8741 794.772C37.995 773.482 53.9788 760.041 64.0834 758.066C97.8881 751.459 110.932 779.631 110.932 794.772C110.932 830.56 78.7811 844.01 64.0834 843.866C26.6043 843.499 6.5871 814.501 2.99619 794.772C-2.51543 764.489 13.5602 742.007 21.8276 728.856Z" fill="#4A223B" fill-opacity="0.06"/>
<path d="M373.918 80.8553C396.003 67.0247 401.587 62.6569 405.609 37.8804C407.814 24.2992 399.325 -2.03722 394.662 -12.1313C387.533 -27.5608 367.028 -37.7471 360.598 -41.0372C341.766 -50.6725 313.749 -44.7078 300.429 -36.449C281.999 -25.0216 270.46 0.71571 272.871 19.9863C275.811 43.4781 292.162 57.8272 303.644 62.6569C324.588 71.4663 346.359 62.5881 354.627 51.6451C369.325 32.191 363.725 14.9392 360.598 5.76278C354.719 -11.489 333.958 -14.1533 322.016 -12.1313C300.337 -8.46075 295.503 9.89218 296.295 19.9863C297.765 38.7063 318.342 48.8922 331.662 42.9275C342.318 38.1557 345.39 31.9157 346.359 23.1981C347.094 16.591 338.683 9.31571 336.662 7.93924C328.578 2.43336 325.162 8.22748 325.162 11.4392C324.427 15.8439 329.365 15.4687 331.662 17.9392C336.438 23.0781 335.336 28.0371 331.662 29.6216C314.638 36.9628 307.606 21.8216 309.156 14.9392C312.463 0.256889 324.772 -2.03723 331.662 -2.03723C340.48 -2.03723 350.493 9.94954 351.871 14.9392C357.75 36.2287 341.766 49.6702 331.662 51.6451C297.857 58.2522 284.813 30.0804 284.813 14.9392C284.813 -20.849 316.964 -34.2988 331.662 -34.1549C369.141 -33.7878 389.158 -4.79017 392.749 14.9392C398.261 45.2216 382.185 67.7039 373.918 80.8553Z" fill="#4A223B" fill-opacity="0.06"/>
<path d="M267.002 152.784C267.937 178.825 268.927 185.846 288.374 201.717C299.033 210.417 326.085 216.234 337.159 217.242C354.085 218.783 373.16 206.118 379.224 202.195C396.984 190.704 405.827 163.458 405.335 147.793C404.653 126.119 388.134 103.256 370.239 95.7094C348.425 86.5092 327.823 93.4952 317.899 101.024C299.798 114.758 296.601 138.051 301.944 150.683C311.443 173.138 329.183 176.915 338.694 178.795C356.574 182.329 369.262 165.682 373.481 154.329C381.142 133.719 367.665 120.356 358.527 115.996C341.58 107.908 322.471 120.635 320.976 135.153C319.781 146.767 323.649 152.548 330.714 157.746C336.068 161.686 346.575 158.039 348.777 156.977C357.587 152.73 354.278 146.874 351.496 145.268C348.049 142.429 345.905 146.894 342.617 147.647C335.778 149.215 332.035 145.78 332.5 141.806C334.654 123.392 351.283 124.873 356.468 129.657C367.53 139.862 363.362 151.669 359.917 157.635C355.508 165.273 340.121 167.95 335.11 166.649C313.734 161.096 310.085 140.533 313.427 130.794C324.607 98.215 355.527 101.004 368.639 108.575C399.633 126.469 395.205 161.038 387.732 173.694C368.674 205.968 333.553 208.805 314.671 202.05C285.69 191.682 274.258 166.519 267.002 152.784Z" fill="#4A223B" fill-opacity="0.06"/>
<path d="M402.688 265.051C388.858 242.966 384.49 237.381 359.713 233.359C346.132 231.154 319.796 239.643 309.702 244.307C294.272 251.435 284.086 271.94 280.796 278.37C271.16 297.202 277.125 325.219 285.384 338.539C296.811 356.969 322.549 368.509 341.819 366.097C365.311 363.158 379.66 346.807 384.49 335.324C393.299 314.38 384.421 292.609 373.478 284.341C354.024 269.644 336.772 275.243 327.596 278.37C310.344 284.25 307.68 305.01 309.702 316.952C313.372 338.631 331.725 343.465 341.819 342.673C360.539 341.203 370.725 320.626 364.76 307.307C359.989 296.651 353.749 293.579 345.031 292.609C338.424 291.874 331.149 300.286 329.772 302.307C324.266 310.39 330.06 313.807 333.272 313.807C337.677 314.541 337.302 309.603 339.772 307.307C344.911 302.53 349.87 303.632 351.455 307.307C358.796 324.331 343.655 331.363 336.772 329.812C322.09 326.505 319.796 314.196 319.796 307.307C319.796 298.488 331.783 288.475 336.772 287.097C358.062 281.218 371.503 297.202 373.478 307.307C380.085 341.111 351.913 354.155 336.772 354.155C300.984 354.155 287.534 322.004 287.678 307.307C288.045 269.827 317.043 249.81 336.772 246.219C367.055 240.708 389.537 256.783 402.688 265.051Z" fill="#4A223B" fill-opacity="0.06"/>
<path d="M301.604 373C279.519 386.831 273.934 391.199 269.912 415.975C267.707 429.556 276.196 455.893 280.86 465.987C287.988 481.416 308.493 491.603 314.924 494.893C333.755 504.528 361.773 498.563 375.092 490.304C393.522 478.877 405.062 453.14 402.65 433.869C399.711 410.377 383.36 396.028 371.877 391.199C350.933 382.389 329.162 391.267 320.895 402.21C306.197 421.664 311.797 438.916 314.924 448.093C320.803 465.344 341.563 468.009 353.505 465.987C375.184 462.316 380.019 443.963 379.226 433.869C377.756 415.149 357.18 404.963 343.86 410.928C333.204 415.7 330.132 421.94 329.162 430.657C328.427 437.264 336.839 444.54 338.86 445.916C346.943 451.422 350.36 445.628 350.36 442.416C351.095 438.012 346.156 438.387 343.86 435.916C339.083 430.777 340.185 425.818 343.86 424.234C360.884 416.893 367.916 432.034 366.366 438.916C363.059 453.599 350.749 455.893 343.86 455.893C335.041 455.893 325.028 443.906 323.65 438.916C317.771 417.627 333.755 404.185 343.86 402.21C377.664 395.603 390.709 423.775 390.709 438.916C390.709 474.704 358.557 488.154 343.86 488.01C306.381 487.643 286.363 458.646 282.773 438.916C277.261 408.634 293.337 386.152 301.604 373Z" fill="#4A223B" fill-opacity="0.06"/>
<path d="M334.56 660.542C360.602 659.607 367.622 658.616 383.493 639.17C392.193 628.511 398.01 601.459 399.018 590.385C400.559 573.459 387.895 554.384 383.971 548.32C372.48 530.56 345.234 521.717 329.569 522.209C307.895 522.891 285.033 539.41 277.486 557.304C268.286 579.119 275.272 599.721 282.801 609.645C296.534 627.746 319.828 630.943 332.459 625.6C354.915 616.101 358.691 598.361 360.571 588.85C364.106 570.97 347.459 558.282 336.106 554.062C315.496 546.402 302.133 559.879 297.772 569.017C289.685 585.964 302.412 605.073 316.929 606.567C328.543 607.763 334.324 603.895 339.523 596.83C343.463 591.476 339.816 580.969 338.754 578.767C334.506 569.957 328.65 573.266 327.044 576.048C324.206 579.495 328.67 581.639 329.424 584.927C330.991 591.766 327.557 595.509 323.582 595.044C305.168 592.89 306.649 576.261 311.433 571.076C321.638 560.014 333.445 564.182 339.412 567.627C347.049 572.036 349.727 587.423 348.425 592.434C342.872 613.81 322.309 617.459 312.571 614.117C279.991 602.937 282.781 572.017 290.351 558.905C308.245 527.911 342.814 532.339 355.471 539.812C387.745 558.87 390.581 593.991 383.827 612.873C373.459 641.854 348.296 653.286 334.56 660.542Z" fill="#4A223B" fill-opacity="0.06"/>
<path d="M301.604 676.856C279.519 690.686 273.934 695.054 269.912 719.831C267.707 733.412 276.196 759.748 280.86 769.842C287.988 785.272 308.493 795.458 314.924 798.748C333.755 808.383 361.773 802.419 375.092 794.16C393.522 782.733 405.062 756.995 402.65 737.725C399.711 714.233 383.36 699.884 371.877 695.054C350.933 686.245 329.162 695.123 320.895 706.066C306.197 725.52 311.797 742.772 314.924 751.948C320.803 769.2 341.563 771.864 353.505 769.842C375.184 766.172 380.019 747.819 379.226 737.725C377.756 719.005 357.18 708.819 343.86 714.783C333.204 719.555 330.132 725.795 329.162 734.513C328.427 741.12 336.839 748.395 338.86 749.772C346.943 755.278 350.36 749.483 350.36 746.272C351.095 741.867 346.156 742.242 343.86 739.772C339.083 734.633 340.185 729.674 343.86 728.089C360.884 720.748 367.916 735.889 366.366 742.772C363.059 757.454 350.749 759.748 343.86 759.748C335.041 759.748 325.028 747.761 323.65 742.772C317.771 721.482 333.755 708.041 343.86 706.066C377.664 699.459 390.709 727.631 390.709 742.772C390.709 778.56 358.557 792.01 343.86 791.866C306.381 791.499 286.363 762.501 282.773 742.772C277.261 712.489 293.337 690.007 301.604 676.856Z" fill="#4A223B" fill-opacity="0.06"/>
<path d="M386.153 934.828C403.906 915.753 408.17 910.088 405.642 885.115C404.256 871.426 389.241 848.184 382.123 839.641C371.244 826.582 348.801 822.05 341.739 820.536C321.055 816.103 295.536 829.116 284.808 840.541C269.963 856.349 265.478 884.196 272.795 902.186C281.715 924.117 301.222 933.745 313.564 935.438C336.074 938.526 354.806 924.316 359.959 911.606C369.121 889.011 359.247 873.796 353.851 865.742C343.708 850.599 322.965 853.399 311.953 858.443C291.963 867.599 292.043 886.578 295.421 896.123C301.686 913.825 324.198 918.338 335.52 909.129C344.578 901.762 345.93 894.94 344.611 886.268C343.611 879.696 333.603 874.846 331.294 874.039C322.061 870.813 320.261 877.294 321.092 880.396C321.522 884.841 326.195 883.201 329.053 884.993C334.997 888.72 335.216 893.795 332.076 896.277C317.532 907.774 306.821 894.969 306.537 887.92C305.932 872.882 317.228 867.48 323.883 865.697C332.401 863.414 345.175 872.401 347.797 876.864C358.986 895.907 347.026 913.027 337.777 917.55C306.834 932.681 286.943 908.845 283.024 894.22C273.761 859.651 301.336 838.339 315.57 834.674C351.867 825.328 378.707 848.156 387.282 866.284C400.444 894.108 390.735 919.985 386.153 934.828Z" fill="#4A223B" fill-opacity="0.06"/>
<path d="M158.404 45.8553C136.319 32.0247 130.734 27.6569 126.712 2.88042C124.507 -10.7008 132.996 -37.0372 137.66 -47.1313C144.788 -62.5608 165.293 -72.7471 171.724 -76.0372C190.555 -85.6725 218.572 -79.7078 231.892 -71.449C250.322 -60.0216 261.862 -34.2843 259.45 -15.0137C256.511 8.47807 240.16 22.8272 228.677 27.6569C207.733 36.4663 185.962 27.5881 177.694 16.6451C162.997 -2.809 168.596 -20.0608 171.724 -29.2372C177.603 -46.489 198.363 -49.1533 210.305 -47.1313C231.984 -43.4608 236.818 -25.1078 236.026 -15.0137C234.556 3.7063 213.979 13.8922 200.66 7.92747C190.004 3.15571 186.932 -3.08429 185.962 -11.8019C185.227 -18.409 193.639 -25.6843 195.66 -27.0608C203.743 -32.5666 207.16 -26.7725 207.16 -23.5608C207.894 -19.1561 202.956 -19.5313 200.66 -17.0608C195.883 -11.9219 196.985 -6.9629 200.66 -5.37841C217.684 1.96277 224.716 -13.1784 223.165 -20.0608C219.858 -34.7431 207.549 -37.0372 200.66 -37.0372C191.841 -37.0372 181.828 -25.0505 180.45 -20.0608C174.571 1.22865 190.555 14.6702 200.66 16.6451C234.464 23.2522 247.508 -4.91958 247.508 -20.0608C247.508 -55.849 215.357 -69.2988 200.66 -69.1549C163.181 -68.7878 143.163 -39.7902 139.572 -20.0608C134.061 10.2216 150.136 32.7039 158.404 45.8553Z" fill="#4A223B" fill-opacity="0.06"/>
<path d="M265.318 267.784C264.383 293.825 263.393 300.846 243.947 316.717C233.287 325.417 206.235 331.234 195.161 332.242C178.235 333.783 159.161 321.118 153.096 317.195C135.336 305.704 126.493 278.458 126.986 262.793C127.667 241.119 144.186 218.256 162.081 210.709C183.895 201.509 204.497 208.495 214.421 216.024C232.523 229.758 235.719 253.051 230.376 265.683C220.877 288.138 203.137 291.915 193.626 293.795C175.746 297.329 163.059 280.682 158.839 269.329C151.178 248.719 164.655 235.356 173.793 230.996C190.74 222.908 209.85 235.635 211.344 250.153C212.539 261.767 208.671 267.548 201.606 272.746C196.252 276.686 185.746 273.039 183.543 271.977C174.733 267.73 178.043 261.874 180.824 260.268C184.271 257.429 186.416 261.894 189.703 262.647C196.542 264.215 200.286 260.78 199.821 256.806C197.666 238.392 181.038 239.873 175.852 244.657C164.791 254.862 168.958 266.669 172.403 272.635C176.813 280.273 192.2 282.95 197.21 281.649C218.587 276.096 222.236 255.533 218.894 245.794C207.713 213.215 176.794 216.004 163.681 223.575C132.687 241.469 137.115 276.038 144.589 288.694C163.646 320.968 198.767 323.805 217.649 317.05C246.63 306.682 258.063 281.519 265.318 267.784Z" fill="#4A223B" fill-opacity="0.06"/>
<path d="M129.633 380.051C143.464 357.966 147.831 352.381 172.608 348.359C186.189 346.154 212.526 354.643 222.62 359.307C238.049 366.435 248.235 386.94 251.526 393.37C261.161 412.202 255.196 440.219 246.937 453.539C235.51 471.969 209.773 483.509 190.502 481.097C167.01 478.158 152.661 461.807 147.831 450.324C139.022 429.38 147.9 407.609 158.843 399.341C178.297 384.644 195.549 390.243 204.726 393.37C221.977 399.25 224.642 420.01 222.62 431.952C218.949 453.631 200.596 458.465 190.502 457.673C171.782 456.203 161.596 435.626 167.561 422.307C172.333 411.651 178.573 408.579 187.29 407.609C193.897 406.874 201.173 415.286 202.549 417.307C208.055 425.39 202.261 428.807 199.049 428.807C194.644 429.541 195.02 424.603 192.549 422.307C187.41 417.53 182.451 418.632 180.867 422.307C173.526 439.331 188.667 446.363 195.549 444.812C210.231 441.505 212.526 429.196 212.526 422.307C212.526 413.488 200.539 403.475 195.549 402.097C174.26 396.218 160.818 412.202 158.843 422.307C152.236 456.111 180.408 469.155 195.549 469.155C231.337 469.155 244.787 437.004 244.643 422.307C244.276 384.827 215.278 364.81 195.549 361.219C165.267 355.708 142.784 371.783 129.633 380.051Z" fill="#4A223B" fill-opacity="0.06"/>
<path d="M230.717 488C252.802 501.831 258.387 506.199 262.409 530.975C264.614 544.556 256.125 570.893 251.462 580.987C244.333 596.416 223.828 606.603 217.398 609.893C198.566 619.528 170.549 613.563 157.229 605.304C138.799 593.877 127.259 568.14 129.671 548.869C132.61 525.377 148.962 511.028 160.444 506.199C181.388 497.389 203.159 506.267 211.427 517.21C226.124 536.664 220.525 553.916 217.398 563.093C211.519 580.344 190.758 583.009 178.816 580.987C157.137 577.316 152.303 558.963 153.095 548.869C154.565 530.149 175.142 519.963 188.462 525.928C199.117 530.7 202.19 536.94 203.159 545.657C203.894 552.264 195.482 559.54 193.462 560.916C185.378 566.422 181.962 560.628 181.962 557.416C181.227 553.012 186.165 553.387 188.462 550.916C193.238 545.777 192.136 540.818 188.462 539.234C171.437 531.893 164.406 547.034 165.956 553.916C169.263 568.599 181.572 570.893 188.462 570.893C197.28 570.893 207.293 558.906 208.671 553.916C214.55 532.627 198.566 519.185 188.462 517.21C154.657 510.603 141.613 538.775 141.613 553.916C141.613 589.704 173.764 603.154 188.462 603.01C225.941 602.643 245.958 573.646 249.549 553.916C255.06 523.634 238.985 501.152 230.717 488Z" fill="#4A223B" fill-opacity="0.06"/>
<path d="M197.76 775.542C171.719 774.607 164.698 773.616 148.827 754.17C140.127 743.511 134.31 716.459 133.302 705.385C131.761 688.459 144.426 669.384 148.349 663.32C159.84 645.56 187.086 636.717 202.751 637.209C224.425 637.891 247.288 654.41 254.835 672.304C264.035 694.119 257.049 714.721 249.519 724.645C235.786 742.746 212.493 745.943 199.861 740.6C177.406 731.101 173.629 713.361 171.749 703.85C168.215 685.97 184.862 673.282 196.215 669.062C216.825 661.402 230.188 674.879 234.548 684.017C242.636 700.964 229.909 720.073 215.391 721.567C203.777 722.763 197.996 718.895 192.798 711.83C188.858 706.476 192.505 695.969 193.567 693.767C197.814 684.957 203.67 688.266 205.276 691.048C208.115 694.495 203.65 696.639 202.897 699.927C201.329 706.766 204.764 710.509 208.738 710.044C227.152 707.89 225.671 691.261 220.887 686.076C210.682 675.014 198.875 679.182 192.909 682.627C185.271 687.036 182.593 702.423 183.895 707.434C189.448 728.81 210.011 732.459 219.75 729.117C252.329 717.937 249.54 687.017 241.969 673.905C224.075 642.911 189.506 647.339 176.85 654.812C144.575 673.87 141.739 708.991 148.494 727.873C158.862 756.854 184.025 768.286 197.76 775.542Z" fill="#4A223B" fill-opacity="0.06"/>
<path d="M230.717 791.856C252.802 805.686 258.387 810.054 262.409 834.831C264.614 848.412 256.125 874.748 251.462 884.842C244.333 900.272 223.828 910.458 217.398 913.748C198.566 923.383 170.549 917.419 157.229 909.16C138.799 897.733 127.259 871.995 129.671 852.725C132.61 829.233 148.962 814.884 160.444 810.054C181.388 801.245 203.159 810.123 211.427 821.066C226.124 840.52 220.525 857.772 217.398 866.948C211.518 884.2 190.758 886.864 178.816 884.842C157.137 881.172 152.303 862.819 153.095 852.725C154.565 834.005 175.142 823.819 188.462 829.783C199.117 834.555 202.19 840.795 203.159 849.513C203.894 856.12 195.482 863.395 193.462 864.772C185.378 870.278 181.962 864.483 181.962 861.272C181.227 856.867 186.165 857.242 188.462 854.772C193.238 849.633 192.136 844.674 188.462 843.089C171.437 835.748 164.406 850.889 165.956 857.772C169.263 872.454 181.572 874.748 188.462 874.748C197.28 874.748 207.293 862.761 208.671 857.772C214.55 836.482 198.566 823.041 188.462 821.066C154.657 814.459 141.613 842.631 141.613 857.772C141.613 893.56 173.764 907.01 188.462 906.866C225.941 906.499 245.958 877.501 249.549 857.772C255.06 827.489 238.985 805.007 230.717 791.856Z" fill="#4A223B" fill-opacity="0.06"/>
<path d="M171.828 180.855C149.742 167.025 144.158 162.657 140.136 137.88C137.931 124.299 146.42 97.9628 151.083 87.8687C158.212 72.4392 178.717 62.2529 185.147 58.9628C203.979 49.3275 231.996 55.2922 245.316 63.551C263.746 74.9784 275.285 100.716 272.874 119.986C269.935 143.478 253.583 157.827 242.101 162.657C221.157 171.466 199.386 162.588 191.118 151.645C176.421 132.191 182.02 114.939 185.147 105.763C191.026 88.511 211.787 85.8467 223.729 87.8687C245.408 91.5392 250.242 109.892 249.45 119.986C247.98 138.706 227.403 148.892 214.083 142.927C203.428 138.156 200.355 131.916 199.386 123.198C198.651 116.591 207.062 109.316 209.083 107.939C217.167 102.433 220.583 108.227 220.583 111.439C221.318 115.844 216.38 115.469 214.083 117.939C209.307 123.078 210.409 128.037 214.083 129.622C231.108 136.963 238.139 121.822 236.589 114.939C233.282 100.257 220.973 97.9628 214.083 97.9628C205.265 97.9628 195.252 109.95 193.874 114.939C187.995 136.229 203.979 149.67 214.083 151.645C247.888 158.252 260.932 130.08 260.932 114.939C260.932 79.151 228.781 65.7012 214.083 65.8451C176.604 66.2122 156.587 95.2098 152.996 114.939C147.485 145.222 163.56 167.704 171.828 180.855Z" fill="#4A223B" fill-opacity="0.06"/>
</g>
<defs>
<clipPath id="clip0_411_1038">
<rect width="393" height="852" fill="white"/>
</clipPath>
</defs>
</svg>
