<svg width="172" height="172" viewBox="0 0 172 172" fill="none" xmlns="http://www.w3.org/2000/svg">
<circle cx="86" cy="86" r="84" fill="#DD0078" stroke="#4A223B" stroke-width="4"/>
<path d="M27 129C16.2 129.4 31.5 146.5 40.5 155C47.1667 165 77.5 176 105 166.5C141.441 153.911 146.5 120 145 106C145 100.167 141.9 93.5001 129.5 113.5C114 138.5 97 147.5 74 148.5C51 149.5 40.5 128.5 27 129Z" fill="#FF6996"/>
<path d="M17.5 88C9.9 63.2 16.6667 41.3333 21 33.5C21.3333 28.1667 50 6.49978 71 3.5C107.988 -1.78356 134 15.5 145 27C147.5 32.1667 149.8 40.1 139 30.5C125.5 18.5 88.5 0.500002 51 21C21 37.4 16.1667 72.5 17.5 88Z" fill="#FF6996"/>
<path d="M28 25.5001C33.2 16.3001 52.5 9.00006 61.5 6.50006C64.7 2.50006 87.5 2.16672 98.5 2.50006C103.833 3.83339 109.3 6.70006 88.5 7.50006C62.5 8.50006 45 20.0001 39.5 24.0001C34 28.0001 21.5 37.0001 28 25.5001Z" fill="#FFB3C9"/>
<path d="M54.5 155.5C58.9 157.9 73.6667 159.5 80.5 160C120.5 160 133 129.5 130.5 138.5C128 147.5 109.5 160 95.5 164C81.5 168 65 164 56.5 160C48 156 49 152.5 54.5 155.5Z" fill="#FFA5C0"/>
<path d="M46.5 73C38.5 94.6 52 111.5 68 123C52.5 130 8.50003 87.0001 44.5 53.0001C80.5 19.0001 96 33.0001 115.5 38.5001C135 44.0001 140.5 67.5001 139.5 70.0001C138.5 72.5001 137 64.5001 132 65.0001C127 65.5001 137 84.0001 132 87.0001C127 90.0001 125 73 113.5 61.5001C104.3 52.3002 91.8333 48.5001 88.5 48.5C76.6667 47.1667 54.5 51.4 46.5 73Z" fill="#FF6996"/>
<path d="M81.231 71.1185C73.631 66.3185 67.3977 70.7851 65.231 73.6185C47.231 90.6185 68.9127 104.312 79.5 99.5C90.5 94.5 85 82.5 76.731 79.1184C68.8597 75.8994 77.0644 71.4518 81.231 71.1185Z" fill="#FF6996"/>
<path d="M143.5 64.0002C169.5 103.6 142 144.5 125 160C188 125.5 169 18.5005 89.0003 18.5002C-3.22894 18.4999 5 135.5 72.0003 139.5C118.959 142.304 126.106 103.306 122.5 86C117.5 62 85.5 37.5 56.5 64.0002C30.5969 87.6705 61.1075 129.492 89.0003 114C107.906 103.5 104.801 79.6723 91.5002 73.0002C80.0004 67.2313 75.3159 77.4388 80.0003 79.0003C95.0002 84.0002 91.5002 98.0001 83.0003 101.5C60.6306 110.712 53.5 77.2502 72.0003 68C87.5 60.2501 99.5001 69.5 105.5 82.0003C110.877 93.2024 108.334 104.334 105.5 109C83.0004 144.5 24.5003 117 36.0003 71.0002C47.5003 25.0002 111 14.5002 143.5 64.0002Z" fill="white" stroke="#4A223B" stroke-width="4"/>
<circle cx="86" cy="86" r="84" stroke="#4A223B" stroke-width="4"/>
</svg>
